G04 Layer: BottomSolderMaskLayer*
G04 EasyEDA v6.4.25, 2022-03-11T05:41:43+01:00*
G04 Gerber Generator version 0.2*
G04 Scale: 100 percent, Rotated: No, Reflected: No *
G04 Dimensions in millimeters *
G04 leading zeros omitted , absolute positions ,4 integer and 5 decimal *
%FSLAX45Y45*%
%MOMM*%

%ADD26C,1.7272*%
%ADD28C,1.8532*%
%ADD30C,1.7016*%

%LPD*%
D26*
X2159000Y7251700D02*
G01*
X2159000Y7404100D01*
X2413000Y7251700D02*
G01*
X2413000Y7404100D01*
X2667000Y7251700D02*
G01*
X2667000Y7404100D01*
X2921000Y7251700D02*
G01*
X2921000Y7404100D01*
X3175000Y7251700D02*
G01*
X3175000Y7404100D01*
X3429000Y7251700D02*
G01*
X3429000Y7404100D01*
X3683000Y7251700D02*
G01*
X3683000Y7404100D01*
X3937000Y7251700D02*
G01*
X3937000Y7404100D01*
X3937000Y9537700D02*
G01*
X3937000Y9690100D01*
X3683000Y9537700D02*
G01*
X3683000Y9690100D01*
X3429000Y9537700D02*
G01*
X3429000Y9690100D01*
X3175000Y9537700D02*
G01*
X3175000Y9690100D01*
X2921000Y9537700D02*
G01*
X2921000Y9690100D01*
X2667000Y9537700D02*
G01*
X2667000Y9690100D01*
X2413000Y9537700D02*
G01*
X2413000Y9690100D01*
X2159000Y9537700D02*
G01*
X2159000Y9690100D01*
G36*
X3281934Y6816089D02*
G01*
X3281934Y7001510D01*
X3467100Y7001510D01*
X3467100Y6816089D01*
G37*
D28*
G01*
X4499508Y6908800D03*
G36*
X1757934Y6828789D02*
G01*
X1757934Y7014210D01*
X1943100Y7014210D01*
X1943100Y6828789D01*
G37*
G01*
X2975508Y6921500D03*
D26*
G01*
X1536700Y6743700D03*
G01*
X1536700Y6489700D03*
G01*
X1536700Y6235700D03*
G01*
X1536700Y5981700D03*
G36*
X1329689Y5087620D02*
G01*
X1329689Y5227828D01*
X1565910Y5227828D01*
X1565910Y5087620D01*
G37*
G36*
X1329689Y5287771D02*
G01*
X1329689Y5427979D01*
X1565910Y5427979D01*
X1565910Y5287771D01*
G37*
D30*
G01*
X1054100Y7552181D03*
G01*
X1054100Y8602192D03*
G36*
X4440681Y5025389D02*
G01*
X4440681Y5225542D01*
X4640834Y5225542D01*
X4640834Y5025389D01*
G37*
G36*
X4440681Y6425437D02*
G01*
X4440681Y6625589D01*
X4640834Y6625589D01*
X4640834Y6425437D01*
G37*
G36*
X2160270Y5025389D02*
G01*
X2160270Y5225542D01*
X2360422Y5225542D01*
X2360422Y5025389D01*
G37*
G36*
X2160270Y6425437D02*
G01*
X2160270Y6625589D01*
X2360422Y6625589D01*
X2360422Y6425437D01*
G37*
G36*
X2160270Y5350510D02*
G01*
X2160270Y5550662D01*
X2360422Y5550662D01*
X2360422Y5350510D01*
G37*
G36*
X2160270Y6100318D02*
G01*
X2160270Y6300470D01*
X2360422Y6300470D01*
X2360422Y6100318D01*
G37*
D26*
G01*
X4292600Y5067300D03*
G01*
X4038600Y5067300D03*
G01*
X3784600Y5067300D03*
G01*
X3530600Y5067300D03*
G01*
X3276600Y5067300D03*
G01*
X3022600Y5067300D03*
G01*
X2768600Y5067300D03*
G01*
X2514600Y5067300D03*
M02*
