G04 Layer: BottomSilkLayer*
G04 EasyEDA v6.4.25, 2022-03-11T05:41:43+01:00*
G04 Gerber Generator version 0.2*
G04 Scale: 100 percent, Rotated: No, Reflected: No *
G04 Dimensions in millimeters *
G04 leading zeros omitted , absolute positions ,4 integer and 5 decimal *
%FSLAX45Y45*%
%MOMM*%

%ADD10C,0.2540*%
%ADD22C,0.1524*%
%ADD25C,0.2032*%

%LPD*%
D22*
X4698491Y5702300D02*
G01*
X4620513Y5702300D01*
X4605020Y5707379D01*
X4594606Y5717794D01*
X4589525Y5733542D01*
X4589525Y5743955D01*
X4594606Y5759450D01*
X4605020Y5769863D01*
X4620513Y5774944D01*
X4698491Y5774944D01*
X4698491Y5819647D02*
G01*
X4698491Y5876797D01*
X4656836Y5845810D01*
X4656836Y5861304D01*
X4651756Y5871718D01*
X4646675Y5876797D01*
X4630927Y5882131D01*
X4620513Y5882131D01*
X4605020Y5876797D01*
X4594606Y5866384D01*
X4589525Y5850889D01*
X4589525Y5835395D01*
X4594606Y5819647D01*
X4599686Y5814568D01*
X4610100Y5809234D01*
D25*
X4379975Y5335778D02*
G01*
X4379975Y5415787D01*
X4321809Y5372100D01*
X4321809Y5393944D01*
X4314443Y5408676D01*
X4307077Y5415787D01*
X4285234Y5423154D01*
X4270756Y5423154D01*
X4248911Y5415787D01*
X4234434Y5401310D01*
X4227068Y5379465D01*
X4227068Y5357621D01*
X4234434Y5335778D01*
X4241800Y5328665D01*
X4256277Y5321300D01*
X4379975Y5471160D02*
G01*
X4227068Y5529326D01*
X4379975Y5587492D02*
G01*
X4227068Y5529326D01*
X4379975Y5649976D02*
G01*
X4379975Y5729986D01*
X4321809Y5686297D01*
X4321809Y5708142D01*
X4314443Y5722873D01*
X4307077Y5729986D01*
X4285234Y5737352D01*
X4270756Y5737352D01*
X4248911Y5729986D01*
X4234434Y5715507D01*
X4227068Y5693663D01*
X4227068Y5671820D01*
X4234434Y5649976D01*
X4241800Y5642863D01*
X4256277Y5635497D01*
X4089400Y5430265D02*
G01*
X4104131Y5423154D01*
X4118609Y5408676D01*
X4125975Y5393944D01*
X4125975Y5364987D01*
X4118609Y5350510D01*
X4104131Y5335778D01*
X4089400Y5328665D01*
X4067809Y5321300D01*
X4031234Y5321300D01*
X4009390Y5328665D01*
X3994911Y5335778D01*
X3980434Y5350510D01*
X3973068Y5364987D01*
X3973068Y5393944D01*
X3980434Y5408676D01*
X3994911Y5423154D01*
X4009390Y5430265D01*
X4031234Y5430265D01*
X4031234Y5393944D02*
G01*
X4031234Y5430265D01*
X4074922Y5478271D02*
G01*
X3973068Y5478271D01*
X4045965Y5478271D02*
G01*
X4067809Y5500115D01*
X4074922Y5514847D01*
X4074922Y5536692D01*
X4067809Y5551170D01*
X4045965Y5558281D01*
X3973068Y5558281D01*
X4125975Y5693663D02*
G01*
X3973068Y5693663D01*
X4053077Y5693663D02*
G01*
X4067809Y5679186D01*
X4074922Y5664454D01*
X4074922Y5642863D01*
X4067809Y5628131D01*
X4053077Y5613654D01*
X4031234Y5606287D01*
X4016756Y5606287D01*
X3994911Y5613654D01*
X3980434Y5628131D01*
X3973068Y5642863D01*
X3973068Y5664454D01*
X3980434Y5679186D01*
X3994911Y5693663D01*
X3862831Y5448554D02*
G01*
X3877309Y5434076D01*
X3884675Y5412231D01*
X3884675Y5383021D01*
X3877309Y5361178D01*
X3862831Y5346700D01*
X3848100Y5346700D01*
X3833622Y5354065D01*
X3826509Y5361178D01*
X3819143Y5375910D01*
X3804665Y5419344D01*
X3797300Y5434076D01*
X3789934Y5441187D01*
X3775456Y5448554D01*
X3753611Y5448554D01*
X3739134Y5434076D01*
X3731768Y5412231D01*
X3731768Y5383021D01*
X3739134Y5361178D01*
X3753611Y5346700D01*
X3848100Y5605526D02*
G01*
X3862831Y5598413D01*
X3877309Y5583681D01*
X3884675Y5569204D01*
X3884675Y5540247D01*
X3877309Y5525515D01*
X3862831Y5511037D01*
X3848100Y5503671D01*
X3826509Y5496560D01*
X3789934Y5496560D01*
X3768090Y5503671D01*
X3753611Y5511037D01*
X3739134Y5525515D01*
X3731768Y5540247D01*
X3731768Y5569204D01*
X3739134Y5583681D01*
X3753611Y5598413D01*
X3768090Y5605526D01*
X3884675Y5653531D02*
G01*
X3731768Y5653531D01*
X3731768Y5653531D02*
G01*
X3731768Y5740907D01*
X3596131Y5423154D02*
G01*
X3610609Y5408676D01*
X3617975Y5386831D01*
X3617975Y5357621D01*
X3610609Y5335778D01*
X3596131Y5321300D01*
X3581400Y5321300D01*
X3566922Y5328665D01*
X3559809Y5335778D01*
X3552443Y5350510D01*
X3537965Y5393944D01*
X3530600Y5408676D01*
X3523234Y5415787D01*
X3508756Y5423154D01*
X3486911Y5423154D01*
X3472434Y5408676D01*
X3465068Y5386831D01*
X3465068Y5357621D01*
X3472434Y5335778D01*
X3486911Y5321300D01*
X3617975Y5471160D02*
G01*
X3465068Y5471160D01*
X3617975Y5471160D02*
G01*
X3617975Y5521960D01*
X3610609Y5543804D01*
X3596131Y5558281D01*
X3581400Y5565647D01*
X3559809Y5573013D01*
X3523234Y5573013D01*
X3501390Y5565647D01*
X3486911Y5558281D01*
X3472434Y5543804D01*
X3465068Y5521960D01*
X3465068Y5471160D01*
X3617975Y5679186D02*
G01*
X3465068Y5621020D01*
X3617975Y5679186D02*
G01*
X3465068Y5737352D01*
X3516122Y5642863D02*
G01*
X3516122Y5715507D01*
X3363975Y5321300D02*
G01*
X3211068Y5423154D01*
X3363975Y5423154D02*
G01*
X3211068Y5321300D01*
X3363975Y5471160D02*
G01*
X3211068Y5471160D01*
X3363975Y5471160D02*
G01*
X3363975Y5521960D01*
X3356609Y5543804D01*
X3342131Y5558281D01*
X3327400Y5565647D01*
X3305809Y5573013D01*
X3269234Y5573013D01*
X3247390Y5565647D01*
X3232911Y5558281D01*
X3218434Y5543804D01*
X3211068Y5521960D01*
X3211068Y5471160D01*
X3363975Y5679186D02*
G01*
X3211068Y5621020D01*
X3363975Y5679186D02*
G01*
X3211068Y5737352D01*
X3262122Y5642863D02*
G01*
X3262122Y5715507D01*
X3109975Y5321300D02*
G01*
X2957068Y5423154D01*
X3109975Y5423154D02*
G01*
X2957068Y5321300D01*
X3073400Y5580126D02*
G01*
X3088131Y5573013D01*
X3102609Y5558281D01*
X3109975Y5543804D01*
X3109975Y5514847D01*
X3102609Y5500115D01*
X3088131Y5485637D01*
X3073400Y5478271D01*
X3051809Y5471160D01*
X3015234Y5471160D01*
X2993390Y5478271D01*
X2978911Y5485637D01*
X2964434Y5500115D01*
X2957068Y5514847D01*
X2957068Y5543804D01*
X2964434Y5558281D01*
X2978911Y5573013D01*
X2993390Y5580126D01*
X3109975Y5628131D02*
G01*
X2957068Y5628131D01*
X2957068Y5628131D02*
G01*
X2957068Y5715507D01*
X2855975Y5379465D02*
G01*
X2703068Y5321300D01*
X2855975Y5379465D02*
G01*
X2703068Y5437631D01*
X2754122Y5343144D02*
G01*
X2754122Y5415787D01*
X2855975Y5485637D02*
G01*
X2703068Y5485637D01*
X2855975Y5485637D02*
G01*
X2855975Y5536692D01*
X2848609Y5558281D01*
X2834131Y5573013D01*
X2819400Y5580126D01*
X2797809Y5587492D01*
X2761234Y5587492D01*
X2739390Y5580126D01*
X2724911Y5573013D01*
X2710434Y5558281D01*
X2703068Y5536692D01*
X2703068Y5485637D01*
X2855975Y5679186D02*
G01*
X2848609Y5657342D01*
X2826765Y5642863D01*
X2790443Y5635497D01*
X2768600Y5635497D01*
X2732277Y5642863D01*
X2710434Y5657342D01*
X2703068Y5679186D01*
X2703068Y5693663D01*
X2710434Y5715507D01*
X2732277Y5729986D01*
X2768600Y5737352D01*
X2790443Y5737352D01*
X2826765Y5729986D01*
X2848609Y5715507D01*
X2855975Y5693663D01*
X2855975Y5679186D01*
X2601975Y5321300D02*
G01*
X2449068Y5321300D01*
X2601975Y5369305D02*
G01*
X2449068Y5369305D01*
X2601975Y5369305D02*
G01*
X2449068Y5471160D01*
X2601975Y5471160D02*
G01*
X2449068Y5471160D01*
X2601975Y5569965D02*
G01*
X2449068Y5569965D01*
X2601975Y5519165D02*
G01*
X2601975Y5621020D01*
D10*
X4546600Y4813300D02*
G01*
X4546600Y6591300D01*
X2260600Y6591300D01*
X2260600Y4813300D01*
X4546600Y4813300D01*
M02*
