G04 Layer: TopSilkLayer*
G04 EasyEDA v6.4.25, 2022-03-11T05:41:43+01:00*
G04 Gerber Generator version 0.2*
G04 Scale: 100 percent, Rotated: No, Reflected: No *
G04 Dimensions in millimeters *
G04 leading zeros omitted , absolute positions ,4 integer and 5 decimal *
%FSLAX45Y45*%
%MOMM*%

%ADD10C,0.2540*%
%ADD20C,0.1270*%
%ADD21C,0.2000*%
%ADD22C,0.1524*%
%ADD23C,0.1016*%
%ADD24C,0.0650*%
%ADD25C,0.2032*%

%LPD*%
D22*
X1251712Y8470900D02*
G01*
X1246378Y8481313D01*
X1230884Y8496808D01*
X1339850Y8496808D01*
D23*
X2030729Y7581900D02*
G01*
X2152141Y7581900D01*
X2030729Y7581900D02*
G01*
X2030729Y7633970D01*
X2036572Y7651242D01*
X2042413Y7656829D01*
X2053843Y7662671D01*
X2065527Y7662671D01*
X2076958Y7656829D01*
X2082800Y7651242D01*
X2088641Y7633970D01*
X2088641Y7581900D01*
X2088641Y7622286D02*
G01*
X2152141Y7662671D01*
X2048256Y7781544D02*
G01*
X2036572Y7770113D01*
X2030729Y7752842D01*
X2030729Y7729728D01*
X2036572Y7712455D01*
X2048256Y7700771D01*
X2059686Y7700771D01*
X2071370Y7706613D01*
X2076958Y7712455D01*
X2082800Y7723886D01*
X2094229Y7758429D01*
X2100072Y7770113D01*
X2105913Y7775955D01*
X2117343Y7781544D01*
X2134870Y7781544D01*
X2146300Y7770113D01*
X2152141Y7752842D01*
X2152141Y7729728D01*
X2146300Y7712455D01*
X2134870Y7700771D01*
X2030729Y7860029D02*
G01*
X2152141Y7860029D01*
X2030729Y7819644D02*
G01*
X2030729Y7900670D01*
X2538729Y7581900D02*
G01*
X2660141Y7581900D01*
X2538729Y7581900D02*
G01*
X2538729Y7622286D01*
X2544572Y7639558D01*
X2556256Y7651242D01*
X2567686Y7656829D01*
X2584958Y7662671D01*
X2613913Y7662671D01*
X2631186Y7656829D01*
X2642870Y7651242D01*
X2654300Y7639558D01*
X2660141Y7622286D01*
X2660141Y7581900D01*
X2538729Y7735570D02*
G01*
X2544572Y7718044D01*
X2561843Y7706613D01*
X2590800Y7700771D01*
X2608072Y7700771D01*
X2637027Y7706613D01*
X2654300Y7718044D01*
X2660141Y7735570D01*
X2660141Y7747000D01*
X2654300Y7764271D01*
X2637027Y7775955D01*
X2608072Y7781544D01*
X2590800Y7781544D01*
X2561843Y7775955D01*
X2544572Y7764271D01*
X2538729Y7747000D01*
X2538729Y7735570D01*
X2792729Y7581900D02*
G01*
X2914141Y7581900D01*
X2792729Y7581900D02*
G01*
X2792729Y7622286D01*
X2798572Y7639558D01*
X2810256Y7651242D01*
X2821686Y7656829D01*
X2838958Y7662671D01*
X2867913Y7662671D01*
X2885186Y7656829D01*
X2896870Y7651242D01*
X2908300Y7639558D01*
X2914141Y7622286D01*
X2914141Y7581900D01*
X2792729Y7770113D02*
G01*
X2792729Y7712455D01*
X2844800Y7706613D01*
X2838958Y7712455D01*
X2833370Y7729728D01*
X2833370Y7747000D01*
X2838958Y7764271D01*
X2850641Y7775955D01*
X2867913Y7781544D01*
X2879343Y7781544D01*
X2896870Y7775955D01*
X2908300Y7764271D01*
X2914141Y7747000D01*
X2914141Y7729728D01*
X2908300Y7712455D01*
X2902458Y7706613D01*
X2891027Y7700771D01*
X3046729Y7581900D02*
G01*
X3168141Y7581900D01*
X3046729Y7581900D02*
G01*
X3046729Y7622286D01*
X3052572Y7639558D01*
X3064256Y7651242D01*
X3075686Y7656829D01*
X3092958Y7662671D01*
X3121913Y7662671D01*
X3139186Y7656829D01*
X3150870Y7651242D01*
X3162300Y7639558D01*
X3168141Y7622286D01*
X3168141Y7581900D01*
X3064256Y7770113D02*
G01*
X3052572Y7764271D01*
X3046729Y7747000D01*
X3046729Y7735570D01*
X3052572Y7718044D01*
X3069843Y7706613D01*
X3098800Y7700771D01*
X3127756Y7700771D01*
X3150870Y7706613D01*
X3162300Y7718044D01*
X3168141Y7735570D01*
X3168141Y7741158D01*
X3162300Y7758429D01*
X3150870Y7770113D01*
X3133343Y7775955D01*
X3127756Y7775955D01*
X3110229Y7770113D01*
X3098800Y7758429D01*
X3092958Y7741158D01*
X3092958Y7735570D01*
X3098800Y7718044D01*
X3110229Y7706613D01*
X3127756Y7700771D01*
X3300729Y7581900D02*
G01*
X3422141Y7581900D01*
X3300729Y7581900D02*
G01*
X3300729Y7622286D01*
X3306572Y7639558D01*
X3318256Y7651242D01*
X3329686Y7656829D01*
X3346958Y7662671D01*
X3375913Y7662671D01*
X3393186Y7656829D01*
X3404870Y7651242D01*
X3416300Y7639558D01*
X3422141Y7622286D01*
X3422141Y7581900D01*
X3300729Y7781544D02*
G01*
X3422141Y7723886D01*
X3300729Y7700771D02*
G01*
X3300729Y7781544D01*
X3554729Y7581900D02*
G01*
X3676141Y7581900D01*
X3554729Y7581900D02*
G01*
X3554729Y7622286D01*
X3560572Y7639558D01*
X3572256Y7651242D01*
X3583686Y7656829D01*
X3600958Y7662671D01*
X3629913Y7662671D01*
X3647186Y7656829D01*
X3658870Y7651242D01*
X3670300Y7639558D01*
X3676141Y7622286D01*
X3676141Y7581900D01*
X3554729Y7729728D02*
G01*
X3560572Y7712455D01*
X3572256Y7706613D01*
X3583686Y7706613D01*
X3595370Y7712455D01*
X3600958Y7723886D01*
X3606800Y7747000D01*
X3612641Y7764271D01*
X3624072Y7775955D01*
X3635756Y7781544D01*
X3653027Y7781544D01*
X3664458Y7775955D01*
X3670300Y7770113D01*
X3676141Y7752842D01*
X3676141Y7729728D01*
X3670300Y7712455D01*
X3664458Y7706613D01*
X3653027Y7700771D01*
X3635756Y7700771D01*
X3624072Y7706613D01*
X3612641Y7718044D01*
X3606800Y7735570D01*
X3600958Y7758429D01*
X3595370Y7770113D01*
X3583686Y7775955D01*
X3572256Y7775955D01*
X3560572Y7770113D01*
X3554729Y7752842D01*
X3554729Y7729728D01*
X3808729Y7593329D02*
G01*
X3808729Y7656829D01*
X3854958Y7622286D01*
X3854958Y7639558D01*
X3860800Y7651242D01*
X3866641Y7656829D01*
X3883913Y7662671D01*
X3895343Y7662671D01*
X3912870Y7656829D01*
X3924300Y7645400D01*
X3930141Y7628128D01*
X3930141Y7610855D01*
X3924300Y7593329D01*
X3918458Y7587742D01*
X3907027Y7581900D01*
X3808729Y7700771D02*
G01*
X3930141Y7747000D01*
X3808729Y7793228D02*
G01*
X3930141Y7747000D01*
X3808729Y7842758D02*
G01*
X3808729Y7906258D01*
X3854958Y7871713D01*
X3854958Y7888986D01*
X3860800Y7900670D01*
X3866641Y7906258D01*
X3883913Y7912100D01*
X3895343Y7912100D01*
X3912870Y7906258D01*
X3924300Y7894828D01*
X3930141Y7877555D01*
X3930141Y7860029D01*
X3924300Y7842758D01*
X3918458Y7837170D01*
X3907027Y7831328D01*
X2284729Y7628128D02*
G01*
X2406141Y7581900D01*
X2284729Y7628128D02*
G01*
X2406141Y7674355D01*
X2365756Y7599171D02*
G01*
X2365756Y7656829D01*
X2284729Y7747000D02*
G01*
X2290572Y7729728D01*
X2307843Y7718044D01*
X2336800Y7712455D01*
X2354072Y7712455D01*
X2383027Y7718044D01*
X2400300Y7729728D01*
X2406141Y7747000D01*
X2406141Y7758429D01*
X2400300Y7775955D01*
X2383027Y7787386D01*
X2354072Y7793228D01*
X2336800Y7793228D01*
X2307843Y7787386D01*
X2290572Y7775955D01*
X2284729Y7758429D01*
X2284729Y7747000D01*
X3897629Y9055100D02*
G01*
X4019041Y9101328D01*
X3897629Y9147555D02*
G01*
X4019041Y9101328D01*
X3926586Y9272270D02*
G01*
X3915156Y9266428D01*
X3903472Y9254744D01*
X3897629Y9243313D01*
X3897629Y9220200D01*
X3903472Y9208770D01*
X3915156Y9197086D01*
X3926586Y9191244D01*
X3943858Y9185655D01*
X3972813Y9185655D01*
X3990086Y9191244D01*
X4001770Y9197086D01*
X4013200Y9208770D01*
X4019041Y9220200D01*
X4019041Y9243313D01*
X4013200Y9254744D01*
X4001770Y9266428D01*
X3990086Y9272270D01*
X3926586Y9396729D02*
G01*
X3915156Y9391142D01*
X3903472Y9379458D01*
X3897629Y9368028D01*
X3897629Y9344913D01*
X3903472Y9333229D01*
X3915156Y9321800D01*
X3926586Y9315958D01*
X3943858Y9310370D01*
X3972813Y9310370D01*
X3990086Y9315958D01*
X4001770Y9321800D01*
X4013200Y9333229D01*
X4019041Y9344913D01*
X4019041Y9368028D01*
X4013200Y9379458D01*
X4001770Y9391142D01*
X3990086Y9396729D01*
X3659886Y9179813D02*
G01*
X3648456Y9173971D01*
X3636772Y9162542D01*
X3630929Y9150858D01*
X3630929Y9127744D01*
X3636772Y9116313D01*
X3648456Y9104629D01*
X3659886Y9099042D01*
X3677158Y9093200D01*
X3706113Y9093200D01*
X3723386Y9099042D01*
X3735070Y9104629D01*
X3746500Y9116313D01*
X3752341Y9127744D01*
X3752341Y9150858D01*
X3746500Y9162542D01*
X3735070Y9173971D01*
X3723386Y9179813D01*
X3706113Y9179813D01*
X3706113Y9150858D02*
G01*
X3706113Y9179813D01*
X3630929Y9217913D02*
G01*
X3752341Y9217913D01*
X3630929Y9217913D02*
G01*
X3752341Y9298686D01*
X3630929Y9298686D02*
G01*
X3752341Y9298686D01*
X3630929Y9336786D02*
G01*
X3752341Y9336786D01*
X3630929Y9336786D02*
G01*
X3630929Y9377171D01*
X3636772Y9394444D01*
X3648456Y9406128D01*
X3659886Y9411970D01*
X3677158Y9417558D01*
X3706113Y9417558D01*
X3723386Y9411970D01*
X3735070Y9406128D01*
X3746500Y9394444D01*
X3752341Y9377171D01*
X3752341Y9336786D01*
X3389629Y9182100D02*
G01*
X3511041Y9182100D01*
X3389629Y9182100D02*
G01*
X3389629Y9222486D01*
X3395472Y9239758D01*
X3407156Y9251442D01*
X3418586Y9257029D01*
X3435858Y9262871D01*
X3464813Y9262871D01*
X3482086Y9257029D01*
X3493770Y9251442D01*
X3505200Y9239758D01*
X3511041Y9222486D01*
X3511041Y9182100D01*
X3389629Y9358629D02*
G01*
X3470656Y9300971D01*
X3470656Y9387586D01*
X3389629Y9358629D02*
G01*
X3511041Y9358629D01*
X3135629Y9207500D02*
G01*
X3257041Y9207500D01*
X3135629Y9207500D02*
G01*
X3135629Y9247886D01*
X3141472Y9265158D01*
X3153156Y9276842D01*
X3164586Y9282429D01*
X3181858Y9288271D01*
X3210813Y9288271D01*
X3228086Y9282429D01*
X3239770Y9276842D01*
X3251200Y9265158D01*
X3257041Y9247886D01*
X3257041Y9207500D01*
X3135629Y9338055D02*
G01*
X3135629Y9401555D01*
X3181858Y9366758D01*
X3181858Y9384029D01*
X3187700Y9395713D01*
X3193541Y9401555D01*
X3210813Y9407144D01*
X3222243Y9407144D01*
X3239770Y9401555D01*
X3251200Y9389871D01*
X3257041Y9372600D01*
X3257041Y9355328D01*
X3251200Y9338055D01*
X3245358Y9332213D01*
X3233927Y9326371D01*
X2868929Y9207500D02*
G01*
X2990341Y9207500D01*
X2868929Y9207500D02*
G01*
X2868929Y9247886D01*
X2874772Y9265158D01*
X2886456Y9276842D01*
X2897886Y9282429D01*
X2915158Y9288271D01*
X2944113Y9288271D01*
X2961386Y9282429D01*
X2973070Y9276842D01*
X2984500Y9265158D01*
X2990341Y9247886D01*
X2990341Y9207500D01*
X2897886Y9332213D02*
G01*
X2892043Y9332213D01*
X2880613Y9338055D01*
X2874772Y9343644D01*
X2868929Y9355328D01*
X2868929Y9378442D01*
X2874772Y9389871D01*
X2880613Y9395713D01*
X2892043Y9401555D01*
X2903727Y9401555D01*
X2915158Y9395713D01*
X2932429Y9384029D01*
X2990341Y9326371D01*
X2990341Y9407144D01*
X2538729Y9105900D02*
G01*
X2660141Y9105900D01*
X2538729Y9105900D02*
G01*
X2538729Y9146286D01*
X2544572Y9163558D01*
X2556256Y9175242D01*
X2567686Y9180829D01*
X2584958Y9186671D01*
X2613913Y9186671D01*
X2631186Y9180829D01*
X2642870Y9175242D01*
X2654300Y9163558D01*
X2660141Y9146286D01*
X2660141Y9105900D01*
X2561843Y9224771D02*
G01*
X2556256Y9236455D01*
X2538729Y9253728D01*
X2660141Y9253728D01*
X2284729Y9105900D02*
G01*
X2406141Y9105900D01*
X2284729Y9105900D02*
G01*
X2284729Y9157970D01*
X2290572Y9175242D01*
X2296413Y9180829D01*
X2307843Y9186671D01*
X2319527Y9186671D01*
X2330958Y9180829D01*
X2336800Y9175242D01*
X2342641Y9157970D01*
X2342641Y9105900D01*
X2342641Y9146286D02*
G01*
X2406141Y9186671D01*
X2284729Y9224771D02*
G01*
X2406141Y9305544D01*
X2284729Y9305544D02*
G01*
X2406141Y9224771D01*
X2030729Y9146286D02*
G01*
X2152141Y9146286D01*
X2030729Y9105900D02*
G01*
X2030729Y9186671D01*
X2030729Y9224771D02*
G01*
X2152141Y9305544D01*
X2030729Y9305544D02*
G01*
X2152141Y9224771D01*
X4189729Y8978900D02*
G01*
X4311141Y8978900D01*
X4189729Y8978900D02*
G01*
X4189729Y9019286D01*
X4195572Y9036558D01*
X4207256Y9048242D01*
X4218686Y9053829D01*
X4235958Y9059671D01*
X4264913Y9059671D01*
X4282186Y9053829D01*
X4293870Y9048242D01*
X4305300Y9036558D01*
X4311141Y9019286D01*
X4311141Y8978900D01*
X4212843Y9097771D02*
G01*
X4207256Y9109455D01*
X4189729Y9126728D01*
X4311141Y9126728D01*
X4230370Y9253728D02*
G01*
X4311141Y9253728D01*
X4253229Y9253728D02*
G01*
X4235958Y9271000D01*
X4230370Y9282429D01*
X4230370Y9299955D01*
X4235958Y9311386D01*
X4253229Y9317228D01*
X4311141Y9317228D01*
X4253229Y9317228D02*
G01*
X4235958Y9334500D01*
X4230370Y9345929D01*
X4230370Y9363455D01*
X4235958Y9374886D01*
X4253229Y9380728D01*
X4311141Y9380728D01*
X4189729Y9418828D02*
G01*
X4195572Y9424670D01*
X4189729Y9430258D01*
X4184141Y9424670D01*
X4189729Y9418828D01*
X4230370Y9424670D02*
G01*
X4311141Y9424670D01*
X4230370Y9468358D02*
G01*
X4311141Y9468358D01*
X4253229Y9468358D02*
G01*
X4235958Y9485629D01*
X4230370Y9497313D01*
X4230370Y9514586D01*
X4235958Y9526270D01*
X4253229Y9531858D01*
X4311141Y9531858D01*
X4189729Y9569958D02*
G01*
X4195572Y9575800D01*
X4189729Y9581642D01*
X4184141Y9575800D01*
X4189729Y9569958D01*
X4230370Y9575800D02*
G01*
X4311141Y9575800D01*
D24*
X4385818Y7391400D02*
G01*
X4463541Y7391400D01*
X4385818Y7391400D02*
G01*
X4385818Y7424673D01*
X4389627Y7435850D01*
X4393184Y7439405D01*
X4400550Y7443215D01*
X4407915Y7443215D01*
X4415281Y7439405D01*
X4419091Y7435850D01*
X4422902Y7424673D01*
X4422902Y7391400D01*
X4422902Y7417308D02*
G01*
X4463541Y7443215D01*
X4385818Y7467600D02*
G01*
X4463541Y7467600D01*
X4385818Y7467600D02*
G01*
X4385818Y7515605D01*
X4422902Y7467600D02*
G01*
X4422902Y7497063D01*
X4463541Y7467600D02*
G01*
X4463541Y7515605D01*
X4396993Y7591552D02*
G01*
X4389627Y7584186D01*
X4385818Y7573263D01*
X4385818Y7558278D01*
X4389627Y7547355D01*
X4396993Y7539989D01*
X4404359Y7539989D01*
X4411725Y7543545D01*
X4415281Y7547355D01*
X4419091Y7554721D01*
X4426458Y7576820D01*
X4430268Y7584186D01*
X4433824Y7587995D01*
X4441190Y7591552D01*
X4452365Y7591552D01*
X4459731Y7584186D01*
X4463541Y7573263D01*
X4463541Y7558278D01*
X4459731Y7547355D01*
X4452365Y7539989D01*
X4385818Y7615936D02*
G01*
X4463541Y7615936D01*
X4385818Y7615936D02*
G01*
X4385818Y7663942D01*
X4422902Y7615936D02*
G01*
X4422902Y7645654D01*
X4463541Y7615936D02*
G01*
X4463541Y7663942D01*
X4385818Y7714234D02*
G01*
X4463541Y7714234D01*
X4385818Y7688326D02*
G01*
X4385818Y7740142D01*
D22*
X3937000Y7201915D02*
G01*
X3937000Y7092950D01*
X3937000Y7201915D02*
G01*
X3973322Y7201915D01*
X3989070Y7196836D01*
X3999229Y7186421D01*
X4004563Y7176008D01*
X4009643Y7160260D01*
X4009643Y7134352D01*
X4004563Y7118858D01*
X3999229Y7108444D01*
X3989070Y7098029D01*
X3973322Y7092950D01*
X3937000Y7092950D01*
X4043934Y7181087D02*
G01*
X4054347Y7186421D01*
X4070095Y7201915D01*
X4070095Y7092950D01*
X2413000Y7214615D02*
G01*
X2413000Y7105650D01*
X2413000Y7214615D02*
G01*
X2449322Y7214615D01*
X2465070Y7209536D01*
X2475229Y7199121D01*
X2480563Y7188708D01*
X2485643Y7172960D01*
X2485643Y7147052D01*
X2480563Y7131558D01*
X2475229Y7121144D01*
X2465070Y7110729D01*
X2449322Y7105650D01*
X2413000Y7105650D01*
X2525268Y7188708D02*
G01*
X2525268Y7193787D01*
X2530347Y7204202D01*
X2535681Y7209536D01*
X2546095Y7214615D01*
X2566670Y7214615D01*
X2577084Y7209536D01*
X2582418Y7204202D01*
X2587497Y7193787D01*
X2587497Y7183373D01*
X2582418Y7172960D01*
X2572004Y7157465D01*
X2519934Y7105650D01*
X2592831Y7105650D01*
X1053084Y5930900D02*
G01*
X1162050Y5930900D01*
X1053084Y5930900D02*
G01*
X1053084Y5998463D01*
X1104900Y5930900D02*
G01*
X1104900Y5972555D01*
X1162050Y5930900D02*
G01*
X1162050Y5998463D01*
X1053084Y6032754D02*
G01*
X1162050Y6105397D01*
X1053084Y6105397D02*
G01*
X1162050Y6032754D01*
X1053084Y6176010D02*
G01*
X1162050Y6176010D01*
X1053084Y6139687D02*
G01*
X1053084Y6212586D01*
X1053084Y6246876D02*
G01*
X1162050Y6246876D01*
X1053084Y6246876D02*
G01*
X1053084Y6314439D01*
X1104900Y6246876D02*
G01*
X1104900Y6288278D01*
X1162050Y6246876D02*
G01*
X1162050Y6314439D01*
X1053084Y6348729D02*
G01*
X1162050Y6348729D01*
X1053084Y6348729D02*
G01*
X1162050Y6421373D01*
X1053084Y6421373D02*
G01*
X1162050Y6421373D01*
X1068578Y6528307D02*
G01*
X1058163Y6517894D01*
X1053084Y6502400D01*
X1053084Y6481571D01*
X1058163Y6466078D01*
X1068578Y6455663D01*
X1078992Y6455663D01*
X1089405Y6460744D01*
X1094739Y6466078D01*
X1099820Y6476492D01*
X1110234Y6507479D01*
X1115313Y6517894D01*
X1120647Y6523228D01*
X1131062Y6528307D01*
X1146555Y6528307D01*
X1156970Y6517894D01*
X1162050Y6502400D01*
X1162050Y6481571D01*
X1156970Y6466078D01*
X1146555Y6455663D01*
X1053084Y6562597D02*
G01*
X1162050Y6562597D01*
X1053084Y6628129D02*
G01*
X1058163Y6617715D01*
X1068578Y6607302D01*
X1078992Y6602221D01*
X1094739Y6596887D01*
X1120647Y6596887D01*
X1136142Y6602221D01*
X1146555Y6607302D01*
X1156970Y6617715D01*
X1162050Y6628129D01*
X1162050Y6648958D01*
X1156970Y6659371D01*
X1146555Y6669786D01*
X1136142Y6674865D01*
X1120647Y6680200D01*
X1094739Y6680200D01*
X1078992Y6674865D01*
X1068578Y6669786D01*
X1058163Y6659371D01*
X1053084Y6648958D01*
X1053084Y6628129D01*
X1053084Y6714489D02*
G01*
X1162050Y6714489D01*
X1053084Y6714489D02*
G01*
X1162050Y6787134D01*
X1053084Y6787134D02*
G01*
X1162050Y6787134D01*
X1073912Y6821423D02*
G01*
X1068578Y6831837D01*
X1053084Y6847331D01*
X1162050Y6847331D01*
X1040384Y5194300D02*
G01*
X1149350Y5194300D01*
X1040384Y5194300D02*
G01*
X1040384Y5241036D01*
X1045463Y5256529D01*
X1050797Y5261863D01*
X1061212Y5266944D01*
X1076705Y5266944D01*
X1087120Y5261863D01*
X1092200Y5256529D01*
X1097534Y5241036D01*
X1097534Y5194300D01*
X1061212Y5301234D02*
G01*
X1055878Y5311647D01*
X1040384Y5327395D01*
X1149350Y5327395D01*
X786384Y8060194D02*
G01*
X895350Y8060194D01*
X786384Y8060194D02*
G01*
X786384Y8106930D01*
X791463Y8122424D01*
X796797Y8127758D01*
X807212Y8132838D01*
X817626Y8132838D01*
X828039Y8127758D01*
X833120Y8122424D01*
X838200Y8106930D01*
X838200Y8060194D01*
X838200Y8096516D02*
G01*
X895350Y8132838D01*
X786384Y8177542D02*
G01*
X786384Y8234692D01*
X828039Y8203704D01*
X828039Y8219198D01*
X833120Y8229612D01*
X838200Y8234692D01*
X853947Y8240026D01*
X864362Y8240026D01*
X879855Y8234692D01*
X890270Y8224278D01*
X895350Y8208784D01*
X895350Y8193290D01*
X890270Y8177542D01*
X885189Y8172462D01*
X874776Y8167128D01*
D25*
X2728722Y5063489D02*
G01*
X2737865Y5068062D01*
X2747263Y5077205D01*
X2751836Y5086350D01*
X2755900Y5099812D01*
X2755900Y5122671D01*
X2751836Y5136387D01*
X2747263Y5145278D01*
X2737865Y5154421D01*
X2728722Y5158994D01*
X2710941Y5158994D01*
X2701797Y5154421D01*
X2692145Y5145278D01*
X2688336Y5136387D01*
X2683763Y5122671D01*
X2683763Y5099812D01*
X2688336Y5086350D01*
X2692145Y5077205D01*
X2701797Y5068062D01*
X2710941Y5063489D01*
X2728722Y5063489D01*
X2653791Y5063489D02*
G01*
X2653791Y5131815D01*
X2648965Y5145278D01*
X2639822Y5154421D01*
X2626359Y5158994D01*
X2617215Y5158994D01*
X2603245Y5154421D01*
X2594609Y5145278D01*
X2590038Y5131815D01*
X2590038Y5063489D01*
X2528315Y5063489D02*
G01*
X2528315Y5158994D01*
X2560065Y5063489D02*
G01*
X2496311Y5063489D01*
X2425191Y5077205D02*
G01*
X2425191Y5158994D01*
X2466340Y5118100D02*
G01*
X2384297Y5118100D01*
X2549143Y5405120D02*
G01*
X2549143Y5500623D01*
X2549143Y5405120D02*
G01*
X2509011Y5405120D01*
X2494788Y5409692D01*
X2490215Y5414263D01*
X2485390Y5423407D01*
X2485390Y5432552D01*
X2490215Y5441442D01*
X2494788Y5446013D01*
X2509011Y5450586D01*
X2549143Y5450586D02*
G01*
X2509011Y5450586D01*
X2494788Y5455157D01*
X2490215Y5459729D01*
X2485390Y5468873D01*
X2485390Y5482336D01*
X2490215Y5491479D01*
X2494788Y5496052D01*
X2509011Y5500623D01*
X2549143Y5500623D01*
X2415286Y5418836D02*
G01*
X2415286Y5500623D01*
X2455418Y5459729D02*
G01*
X2374138Y5459729D01*
X2549906Y6151371D02*
G01*
X2549906Y6247129D01*
X2549906Y6151371D02*
G01*
X2509265Y6151371D01*
X2495295Y6155944D01*
X2490724Y6160770D01*
X2486152Y6169913D01*
X2486152Y6178804D01*
X2490724Y6187694D01*
X2495295Y6192520D01*
X2509265Y6197092D01*
X2549906Y6197092D02*
G01*
X2509265Y6197092D01*
X2495295Y6201663D01*
X2490724Y6205981D01*
X2486152Y6215379D01*
X2486152Y6228842D01*
X2490724Y6237731D01*
X2495295Y6242304D01*
X2509265Y6247129D01*
X2549906Y6247129D01*
X2456179Y6205981D02*
G01*
X2374391Y6205981D01*
X2728975Y6460489D02*
G01*
X2737104Y6465062D01*
X2746502Y6474205D01*
X2751327Y6483350D01*
X2755900Y6496812D01*
X2755900Y6519671D01*
X2751327Y6533387D01*
X2746502Y6542278D01*
X2737104Y6551421D01*
X2728975Y6555994D01*
X2710179Y6555994D01*
X2701543Y6551421D01*
X2692400Y6542278D01*
X2687827Y6533387D01*
X2683002Y6519671D01*
X2683002Y6496812D01*
X2687827Y6483350D01*
X2692400Y6474205D01*
X2701543Y6465062D01*
X2710179Y6460489D01*
X2728975Y6460489D01*
X2653029Y6460489D02*
G01*
X2653029Y6528815D01*
X2648204Y6542278D01*
X2639822Y6551421D01*
X2625852Y6555994D01*
X2616454Y6555994D01*
X2603500Y6551421D01*
X2594102Y6542278D01*
X2589275Y6528815D01*
X2589275Y6460489D01*
X2527554Y6460489D02*
G01*
X2527554Y6555994D01*
X2559304Y6460489D02*
G01*
X2495550Y6460489D01*
X2465577Y6515100D02*
G01*
X2384297Y6515100D01*
X4382008Y5085079D02*
G01*
X4382008Y5180584D01*
X4352036Y5085079D02*
G01*
X4352036Y5180584D01*
X4352036Y5085079D02*
G01*
X4288281Y5180584D01*
X4288281Y5085079D02*
G01*
X4288281Y5180584D01*
X4217415Y5098795D02*
G01*
X4217415Y5180584D01*
X4258309Y5139689D02*
G01*
X4176522Y5139689D01*
X4382008Y6482079D02*
G01*
X4382008Y6577584D01*
X4352036Y6482079D02*
G01*
X4352036Y6577584D01*
X4352036Y6482079D02*
G01*
X4288281Y6577584D01*
X4288281Y6482079D02*
G01*
X4288281Y6577584D01*
X4258309Y6536689D02*
G01*
X4176522Y6536689D01*
X3437890Y5581650D02*
G01*
X3533393Y5581650D01*
X3437890Y5549900D02*
G01*
X3437890Y5613654D01*
X3437890Y5643626D02*
G01*
X3533393Y5643626D01*
X3437890Y5643626D02*
G01*
X3437890Y5684520D01*
X3442461Y5697981D01*
X3447034Y5702554D01*
X3456177Y5707126D01*
X3469893Y5707126D01*
X3478784Y5702554D01*
X3483356Y5697981D01*
X3487927Y5684520D01*
X3487927Y5643626D01*
X3437890Y5782563D02*
G01*
X3501643Y5737097D01*
X3501643Y5805423D01*
X3437890Y5782563D02*
G01*
X3533393Y5782563D01*
X3437890Y5862573D02*
G01*
X3442461Y5849112D01*
X3456177Y5839968D01*
X3478784Y5835395D01*
X3492500Y5835395D01*
X3515106Y5839968D01*
X3528822Y5849112D01*
X3533393Y5862573D01*
X3533393Y5871718D01*
X3528822Y5885434D01*
X3515106Y5894323D01*
X3492500Y5898895D01*
X3478784Y5898895D01*
X3456177Y5894323D01*
X3442461Y5885434D01*
X3437890Y5871718D01*
X3437890Y5862573D01*
X3437890Y5983478D02*
G01*
X3437890Y5938012D01*
X3478784Y5933439D01*
X3474211Y5938012D01*
X3469893Y5951728D01*
X3469893Y5965444D01*
X3474211Y5978905D01*
X3483356Y5988050D01*
X3497072Y5992621D01*
X3506215Y5992621D01*
X3519677Y5988050D01*
X3528822Y5978905D01*
X3533393Y5965444D01*
X3533393Y5951728D01*
X3528822Y5938012D01*
X3524250Y5933439D01*
X3515106Y5928868D01*
X3451606Y6077204D02*
G01*
X3442461Y6072631D01*
X3437890Y6058915D01*
X3437890Y6050026D01*
X3442461Y6036310D01*
X3456177Y6027165D01*
X3478784Y6022594D01*
X3501643Y6022594D01*
X3519677Y6027165D01*
X3528822Y6036310D01*
X3533393Y6050026D01*
X3533393Y6054344D01*
X3528822Y6068060D01*
X3519677Y6077204D01*
X3506215Y6081776D01*
X3501643Y6081776D01*
X3487927Y6077204D01*
X3478784Y6068060D01*
X3474211Y6054344D01*
X3474211Y6050026D01*
X3478784Y6036310D01*
X3487927Y6027165D01*
X3501643Y6022594D01*
D22*
X1041400Y9028684D02*
G01*
X1041400Y9106662D01*
X1036320Y9122155D01*
X1025905Y9132570D01*
X1010157Y9137650D01*
X999744Y9137650D01*
X984250Y9132570D01*
X973836Y9122155D01*
X968755Y9106662D01*
X968755Y9028684D01*
X871981Y9028684D02*
G01*
X924052Y9028684D01*
X929131Y9075420D01*
X924052Y9070339D01*
X908304Y9065005D01*
X892810Y9065005D01*
X877315Y9070339D01*
X866902Y9080500D01*
X861568Y9096247D01*
X861568Y9106662D01*
X866902Y9122155D01*
X877315Y9132570D01*
X892810Y9137650D01*
X908304Y9137650D01*
X924052Y9132570D01*
X929131Y9127489D01*
X934465Y9117076D01*
D25*
X1725421Y5194300D02*
G01*
X1919223Y5194300D01*
X1725421Y5194300D02*
G01*
X1725421Y5277357D01*
X1734565Y5305044D01*
X1743710Y5314442D01*
X1762252Y5323586D01*
X1780794Y5323586D01*
X1799336Y5314442D01*
X1808479Y5305044D01*
X1817623Y5277357D01*
X1817623Y5194300D02*
G01*
X1817623Y5277357D01*
X1827021Y5305044D01*
X1836165Y5314442D01*
X1854707Y5323586D01*
X1882394Y5323586D01*
X1900936Y5314442D01*
X1910079Y5305044D01*
X1919223Y5277357D01*
X1919223Y5194300D01*
X1725421Y5384545D02*
G01*
X1817623Y5458460D01*
X1919223Y5458460D01*
X1725421Y5532373D02*
G01*
X1817623Y5458460D01*
X1725421Y5735573D02*
G01*
X1817623Y5809487D01*
X1919223Y5809487D01*
X1725421Y5883402D02*
G01*
X1817623Y5809487D01*
X1725421Y5944362D02*
G01*
X1919223Y5944362D01*
X1725421Y5944362D02*
G01*
X1725421Y6064250D01*
X1817623Y5944362D02*
G01*
X1817623Y6018276D01*
X1919223Y5944362D02*
G01*
X1919223Y6064250D01*
X1725421Y6125210D02*
G01*
X1919223Y6254750D01*
X1725421Y6254750D02*
G01*
X1919223Y6125210D01*
X1725421Y6371081D02*
G01*
X1734565Y6352539D01*
X1753107Y6333997D01*
X1771650Y6324854D01*
X1799336Y6315710D01*
X1845310Y6315710D01*
X1873250Y6324854D01*
X1891537Y6333997D01*
X1910079Y6352539D01*
X1919223Y6371081D01*
X1919223Y6407912D01*
X1910079Y6426454D01*
X1891537Y6444995D01*
X1873250Y6454139D01*
X1845310Y6463284D01*
X1799336Y6463284D01*
X1771650Y6454139D01*
X1753107Y6444995D01*
X1734565Y6426454D01*
X1725421Y6407912D01*
X1725421Y6371081D01*
G36*
X3761841Y7026300D02*
G01*
X3761841Y6791198D01*
X3811981Y6791198D01*
X3811981Y7026300D01*
G37*
G36*
X2237841Y7039000D02*
G01*
X2237841Y6803898D01*
X2287981Y6803898D01*
X2287981Y7039000D01*
G37*
D20*
X4699000Y9740900D02*
G01*
X4699000Y8851900D01*
X4572000Y8851900D01*
X4572000Y8788400D01*
X4572000Y8153400D01*
X4572000Y8089900D01*
X4699000Y8089900D01*
X4699000Y7327900D01*
X4572000Y7327900D01*
X4381500Y7327900D01*
X4191000Y7327900D01*
X4064000Y7200900D01*
X1524000Y7200900D01*
X1397000Y7327900D01*
X1397000Y9613900D01*
X1524000Y9740900D01*
X4699000Y9740900D01*
X4381500Y7327900D02*
G01*
X4381500Y7264400D01*
X4572000Y7264400D01*
X4572000Y7327900D01*
X4572000Y8153400D02*
G01*
X4635500Y8153400D01*
X4635500Y8788400D01*
X4572000Y8788400D01*
X3704488Y7026300D02*
G01*
X3704488Y6908800D01*
X3704488Y6791299D01*
X4169511Y6791299D01*
X4169511Y6908800D01*
X4169511Y7026300D01*
X3704488Y7026300D01*
X3501491Y6908800D02*
G01*
X3704488Y6908800D01*
X4169511Y6908800D02*
G01*
X4372508Y6908800D01*
X2180488Y7039000D02*
G01*
X2180488Y6921500D01*
X2180488Y6803999D01*
X2645511Y6803999D01*
X2645511Y6921500D01*
X2645511Y7039000D01*
X2180488Y7039000D01*
X1977491Y6921500D02*
G01*
X2180488Y6921500D01*
X2645511Y6921500D02*
G01*
X2848508Y6921500D01*
D10*
X800100Y6997700D02*
G01*
X1536700Y6997700D01*
X1536700Y5727700D01*
X800100Y5727700D01*
X800100Y6997700D01*
X822799Y4962799D02*
G01*
X822799Y5552800D01*
X1422801Y5047800D02*
G01*
X1422801Y5467799D01*
X1582803Y4962799D02*
G01*
X1582801Y5047800D01*
X1582801Y5467799D02*
G01*
X1582801Y5552803D01*
X1582801Y5467799D02*
G01*
X1422803Y5467799D01*
X1582803Y5047800D02*
G01*
X1422801Y5047800D01*
X1582801Y4962799D02*
G01*
X822799Y4962799D01*
X822799Y5552800D02*
G01*
X1582801Y5552800D01*
X1054100Y7746994D02*
G01*
X1054100Y7670794D01*
X1054100Y8407394D02*
G01*
X1054100Y8483594D01*
X939800Y7759687D02*
G01*
X939800Y8407387D01*
X1168400Y8407387D01*
X1168400Y7759687D01*
X939800Y7759687D01*
D21*
X927100Y9448800D02*
G01*
X927100Y9172575D01*
X927100Y9178925D01*
X1155700Y9175750D02*
G01*
X1155700Y9290050D01*
X1155700Y9442450D01*
X1155700Y9283700D01*
M02*
