M48
METRIC,LZ,000.000
;FILE_FORMAT=3:3
;TYPE=PLATED
;Layer: Drill PTH
;EasyEDA v6.4.25, 2022-03-11T05:41:43+01:00
;10
;Gerber Generator version 0.2
;Holesize 1 = 0.306 mm
T01C0.306
;Holesize 2 = 0.798 mm
T02C0.798
;Holesize 3 = 0.901 mm
T03C0.901
;Holesize 4 = 0.915 mm
T04C0.915
;Holesize 5 = 1.100 mm
T05C1.100
;Holesize 6 = 1.199 mm
T06C1.199
%
G05
G90
T01
X027536Y058911
T02
X014478Y051578
X014478Y053578
T03
X021590Y073279G85X021590Y073279
X024130Y073279G85X024130Y073279
X026670Y073279G85X026670Y073279
X029210Y073279G85X029210Y073279
X031750Y073279G85X031750Y073279
X034290Y073279G85X034290Y073279
X036830Y073279G85X036830Y073279
X039370Y073279G85X039370Y073279
X039370Y096139G85X039370Y096139
X036830Y096139G85X036830Y096139
X034290Y096139G85X034290Y096139
X031750Y096139G85X031750Y096139
X029210Y096139G85X029210Y096139
X026670Y096139G85X026670Y096139
X024130Y096139G85X024130Y096139
X021590Y096139G85X021590Y096139
T04
X015367Y067437
X015367Y064897
X015367Y062357
X015367Y059817
X010541Y075522
X010541Y086022
X042926Y050673
X040386Y050673
X037846Y050673
X035306Y050673
X032766Y050673
X030226Y050673
X027686Y050673
X025146Y050673
T05
X033745Y069088G85X033745Y069088
X044995Y069088G85X044995Y069088
X018505Y069215G85X018505Y069215
X029755Y069215G85X029755Y069215
T06
X045408Y051255
X045408Y065255
X022603Y051255
X022603Y065255
X022603Y054506
X022603Y062004
M30
